<svg xmlns="http://www.w3.org/2000/svg" width="207" height="206.998"><g id="crane" opacity=".07"><path id="Path_31" data-name="Path 31" d="M136 272h6.9v6.9H136zm0 0" transform="translate(-77.351 -154.701)"/><path id="Path_32" data-name="Path 32" d="M168 272h6.9v6.9H168zm0 0" transform="translate(-95.551 -154.701)"/><path id="Path_33" data-name="Path 33" d="M200 272h6.9v6.9H200zm0 0" transform="translate(-113.751 -154.701)"/><path id="Path_34" data-name="Path 34" d="M136 304h6.9v6.9H136zm0 0" transform="translate(-77.351 -172.901)"/><path id="Path_35" data-name="Path 35" d="M168 304h6.9v6.9H168zm0 0" transform="translate(-95.551 -172.901)"/><path id="Path_36" data-name="Path 36" d="M200 304h6.9v6.9H200zm0 0" transform="translate(-113.751 -172.901)"/><path id="Path_37" data-name="Path 37" d="M232 304h6.9v6.9H232zm0 0" transform="translate(-131.951 -172.901)"/><path id="Path_38" data-name="Path 38" d="M264 304h6.9v6.9H264zm0 0" transform="translate(-150.151 -172.901)"/><path id="Path_39" data-name="Path 39" d="M136 336h6.9v6.9H136zm0 0" transform="translate(-77.351 -191.101)"/><path id="Path_40" data-name="Path 40" d="M168 336h6.9v6.9H168zm0 0" transform="translate(-95.551 -191.101)"/><path id="Path_41" data-name="Path 41" d="M200 336h6.9v6.9H200zm0 0" transform="translate(-113.751 -191.101)"/><path id="Path_42" data-name="Path 42" d="M232 336h6.9v6.9H232zm0 0" transform="translate(-131.951 -191.101)"/><path id="Path_43" data-name="Path 43" d="M264 336h6.9v6.9H264zm0 0" transform="translate(-150.151 -191.101)"/><path id="Path_44" data-name="Path 44" d="M136 368h6.9v6.9H136zm0 0" transform="translate(-77.351 -209.301)"/><path id="Path_45" data-name="Path 45" d="M168 368h6.9v6.9H168zm0 0" transform="translate(-95.551 -209.301)"/><path id="Path_46" data-name="Path 46" d="M200 368h6.9v6.9H200zm0 0" transform="translate(-113.751 -209.301)"/><path id="Path_47" data-name="Path 47" d="M232 368h6.9v6.9H232zm0 0" transform="translate(-131.951 -209.301)"/><path id="Path_48" data-name="Path 48" d="M264 368h6.9v6.9H264zm0 0" transform="translate(-150.151 -209.301)"/><path id="Path_49" data-name="Path 49" d="M136 400h6.9v6.9H136zm0 0" transform="translate(-77.351 -227.501)"/><path id="Path_50" data-name="Path 50" d="M168 400h6.9v6.9H168zm0 0" transform="translate(-95.551 -227.501)"/><path id="Path_51" data-name="Path 51" d="M200 400h6.9v6.9H200zm0 0" transform="translate(-113.751 -227.501)"/><path id="Path_52" data-name="Path 52" d="M232 400h6.9v6.9H232zm0 0" transform="translate(-131.951 -227.501)"/><path id="Path_53" data-name="Path 53" d="M264 400h6.9v6.9H264zm0 0" transform="translate(-150.151 -227.501)"/><path id="Path_54" data-name="Path 54" d="M136 432h6.9v6.9H136zm0 0" transform="translate(-77.351 -245.702)"/><path id="Path_55" data-name="Path 55" d="M168 432h6.9v6.9H168zm0 0" transform="translate(-95.551 -245.702)"/><path id="Path_56" data-name="Path 56" d="M200 432h6.9v6.9H200zm0 0" transform="translate(-113.751 -245.702)"/><path id="Path_57" data-name="Path 57" d="M232 432h6.9v6.9H232zm0 0" transform="translate(-131.951 -245.702)"/><path id="Path_58" data-name="Path 58" d="M264 432h6.9v6.9H264zm0 0" transform="translate(-150.151 -245.702)"/><path id="Path_59" data-name="Path 59" d="M203.548 10.35H179.4v-6.9A3.45 3.45 0 00175.948 0h-34.5A3.45 3.45 0 00138 3.45v6.9H3.45A3.45 3.45 0 000 13.8v13.8a3.449 3.449 0 003.45 3.45H13.8V96.6a3.449 3.449 0 003.45 3.45 3.45 3.45 0 11-3.45 3.45H6.9a10.271 10.271 0 002.64 6.836L.691 122.13l.044.034A3.379 3.379 0 000 124.2V138a3.447 3.447 0 001.011 2.439l6.9 6.9a3.45 3.45 0 002.439 1.011h13.8a3.45 3.45 0 002.439-1.011l6.9-6.9A3.447 3.447 0 0034.5 138v-13.8a3.379 3.379 0 00-.734-2.035l.044-.034-8.849-11.8a10.288 10.288 0 00-4.261-16.59V31.05H138v3.45a3.449 3.449 0 003.45 3.45h6.9V200.1h-13.8v-138h-6.9v13.8h-20.7V69h-6.9v6.9h-20.7v-3.45h-6.9v3.45h-20.7V65.55H96.6v-6.9H51.75v-13.8h-6.9V200.1h-5.472l-16.239-16.239a3.449 3.449 0 00-4.878 0L2.021 200.1H0v6.9h207v-6.9h-2.69a10.257 10.257 0 00-4.969-16.849 10.349 10.349 0 10-19.18 0 10.257 10.257 0 00-4.969 16.849h-6.14V37.95h6.9a3.449 3.449 0 003.45-3.45v-3.45h24.15A3.449 3.449 0 00207 27.6V13.8a3.45 3.45 0 00-3.45-3.45zM18.975 113.849l5.175 6.9h-13.8l5.175-6.9zm8.625 22.723l-4.878 4.877H11.778L6.9 136.572v-8.923h20.7zM188.714 17.25l-9.314 6.211V17.25zM144.9 6.9h13.8v13.8h-13.8zM51.75 17.941l9.316 6.209H42.434zm-20.7 5.52l-9.316-6.211h18.631zm32.084-6.211h18.631l-9.316 6.211zm30.015.691l9.316 6.209H83.834zm11.384-.691h18.631l-9.316 6.211zm-97.633 0h2.416l10.35 6.9H6.9zm118.333 6.9l10.35-6.9H138v6.9zm36.915 164.564l-6.209-9.316 6.209-9.314zm0-82.8l-6.209-9.314 6.209-9.314zm-6.9 2.07l6.209 9.314-6.209 9.316zm0-22.77V66.586l6.209 9.314zm0 64.17l6.209 9.314-6.209 9.316zm6.9-2.091l-6.209-9.3 6.209-9.314zM155.939 55.2l6.209-9.314v18.63zm-.691-11.384V37.95h3.9zM127.649 82.8v34.5h-20.7V82.8zm-27.6 0v29.67l-7.934-7.842a3.459 3.459 0 00-2.416-1h-10.35V82.8zm-27.6 0v5.751H51.75V82.8zM20.7 191.177l8.921 8.921H11.778zm31.05 8.923V95.451h20.7v11.644a3.449 3.449 0 003.45 3.45h12.381l12.8 12.659a3.45 3.45 0 002.416 1h24.15v75.9zm103.5-9.314l6.209 9.314h-6.209zm41.4 5.864a3.45 3.45 0 113.45-3.45 3.449 3.449 0 01-3.452 3.449zm-6.9-20.7a3.45 3.45 0 11-3.45 3.45 3.45 3.45 0 013.448-3.451zm-6.9 13.8a3.45 3.45 0 11-3.45 3.45 3.45 3.45 0 013.448-3.451zM172.5 31.05h-27.6V27.6h17.25a3.449 3.449 0 003.45-3.45V6.9h6.9zm18.284-6.9l9.316-6.209v6.209zm0 0"/></g></svg>